<svg width="64" height="64" viewBox="0 0 64 64" fill="none" xmlns="http://www.w3.org/2000/svg">
<path d="M0 16C0 7.16344 7.16344 0 16 0H48C56.8366 0 64 7.16344 64 16V48C64 56.8366 56.8366 64 48 64H16C7.16344 64 0 56.8366 0 48V16Z" fill="url(#paint0_linear_1_119)"/>
<path d="M26.4027 41V23.5455H32.3004C33.6697 23.5455 34.7891 23.7926 35.6584 24.2869C36.5334 24.7756 37.1811 25.4375 37.6016 26.2727C38.022 27.108 38.2322 28.0398 38.2322 29.0682C38.2322 30.0966 38.022 31.0312 37.6016 31.8722C37.1868 32.7131 36.5447 33.3835 35.6754 33.8835C34.8061 34.3778 33.6925 34.625 32.3345 34.625H28.1072V32.75H32.2663C33.2038 32.75 33.9567 32.5881 34.5249 32.2642C35.093 31.9403 35.505 31.5028 35.7607 30.9517C36.022 30.3949 36.1527 29.767 36.1527 29.0682C36.1527 28.3693 36.022 27.7443 35.7607 27.1932C35.505 26.642 35.0902 26.2102 34.5163 25.8977C33.9425 25.5795 33.1811 25.4205 32.2322 25.4205H28.5163V41H26.4027Z" fill="white"/>
<defs>
<linearGradient id="paint0_linear_1_119" x1="0" y1="0" x2="64" y2="64" gradientUnits="userSpaceOnUse">
<stop stop-color="#2B7FFF"/>
<stop offset="1" stop-color="#4F39F6"/>
</linearGradient>
</defs>
</svg>
